Coordinates
version=1
nRows=4
nColumns=63
inDegrees=yes

Units are S.I. units (second, meters, Newtons, ...)
If the header above contains a line with 'inDegrees', this indicates whether rotational values are in degrees (yes) or radians (no).

endheader
time	pelvis_tilt	pelvis_list	pelvis_rotation	pelvis_tx	pelvis_ty	pelvis_tz	hip_flexion_r	hip_adduction_r	hip_rotation_r	knee_angle_r	knee_angle_r_beta	ankle_angle_r	subtalar_angle_r	mtp_angle_r	hip_flexion_l	hip_adduction_l	hip_rotation_l	knee_angle_l	knee_angle_l_beta	ankle_angle_l	subtalar_angle_l	mtp_angle_l	L5_S1_Flex_Ext	L5_S1_Lat_Bending	L5_S1_axial_rotation	L4_L5_Flex_Ext	L4_L5_Lat_Bending	L4_L5_axial_rotation	L3_L4_Flex_Ext	L3_L4_Lat_Bending	L3_L4_axial_rotation	L2_L3_Flex_Ext	L2_L3_Lat_Bending	L2_L3_axial_rotation	L1_L2_Flex_Ext	L1_L2_Lat_Bending	L1_L2_axial_rotation	L1_T12_Flex_Ext	L1_T12_Lat_Bending	L1_T12_axial_rotation	Abs_r3	Abs_r2	Abs_r1	Abs_t1	Abs_t2	neck_flexion	neck_bending	neck_rotation	arm_flex_r	arm_add_r	arm_rot_r	elbow_flex_r	pro_sup_r	wrist_flex_r	wrist_dev_r	arm_flex_l	arm_add_l	arm_rot_l	elbow_flex_l	pro_sup_l	wrist_flex_l	wrist_dev_l
      0.00000000	     -6.11347256	     -5.19340436	     99.17045955	      0.23866324	      0.67067889	      0.77999375	      9.38193898	     -9.15589144	    -14.05356202	      8.64205681	      0.15083235	     24.28736544	     14.71970085	      0.00000000	     12.51617893	      5.81226368	     -8.06735338	     11.80656864	      0.20606350	     18.87130544	     13.92205919	      0.00000000	      0.31323417	     -0.93401933	     -0.38738005	      0.58170717	     -1.24224571	     -0.41159130	      0.51461241	     -2.27097461	     -0.41159130	      0.35799533	     -2.27097461	     -0.33895754	      0.29086925	     -1.90465222	     -0.31474629	      0.17898200	     -1.44679595	     -0.29053503	      2.23740032	    -10.56581349	     -2.15449160	      0.00000000	      0.00000000	     28.28691306	      5.29325382	     -8.73561497	      7.19645675	     -6.66824808	     22.50319008	     52.72507059	     87.77699019	     -9.23034774	      3.45579089	     19.02077783	     -8.97669297	    109.46532043	     16.65570055	     14.13835870	     -6.41108484	    -19.84220877
      0.01666667	     -6.21594113	     -5.02569641	     98.36676404	      0.23961166	      0.67048273	      0.77793202	      8.85749410	     -8.96393296	    -12.30188774	      7.94052637	      0.13858833	     23.64372202	     13.67286148	      0.00000000	     12.00836403	      5.76257139	     -8.64324546	     11.44668383	      0.19978232	     19.68488231	     13.85843574	      0.00000000	      0.31828725	     -0.94386868	     -0.41610652	      0.59109125	     -1.25534535	     -0.44211318	      0.52291412	     -2.29492231	     -0.44211318	      0.36377050	     -2.29492231	     -0.36409321	      0.29556154	     -1.92473702	     -0.33808655	      0.18186933	     -1.46205259	     -0.31207989	      2.27349400	    -10.67723130	     -2.31425964	      0.00000000	      0.00000000	     28.28372857	      4.79558150	     -9.86580835	      7.21989326	     -7.19273940	     24.78645523	     52.23949095	     88.01009623	     -9.82292760	      2.27547125	     18.29853553	     -9.91722069	    108.14393157	     16.92817711	     13.16741746	     -5.95072612	    -19.56047604
      0.03333333	     -6.26344534	     -4.99104531	     98.10042612	      0.24000158	      0.67016499	      0.77653687	      8.70373539	     -8.94701108	    -12.02370621	      7.82010853	      0.13648664	     23.63187057	     13.68806069	      0.00000000	     11.85927790	      5.75888772	     -8.75345292	     11.38586069	      0.19872076	     20.16847994	     13.77576533	      0.00000000	      0.33715879	     -0.94701197	     -0.45193324	      0.62613759	     -1.25952592	     -0.48017907	      0.55391818	     -2.30256490	     -0.48017907	      0.38533878	     -2.30256490	     -0.39544159	      0.31308565	     -1.93114680	     -0.36719576	      0.19265253	     -1.46692154	     -0.33894993	      2.40829153	    -10.71278877	     -2.51351713	      0.00000000	      0.00000000	     28.28226475	      4.74833497	     -9.89627566	      6.62109676	     -7.33506340	     25.09570987	     52.29289042	     88.03887601	     -9.82050763	      2.23736802	     17.97676575	    -10.52568573	    108.16458778	     16.93027812	     13.16589811	     -5.90695366	    -19.39932322
      0.05000000	     -6.33167044	     -4.65949759	     96.55710963	      0.24170957	      0.67011533	      0.77508511	      8.21005943	     -8.57438163	     -9.17359498	      6.85944749	      0.11971994	     23.34925108	     12.33355994	      0.00000000	     11.08127640	      5.58488236	     -9.93896162	     10.66526274	      0.18614395	     20.46530648	     13.71202430	      0.00000000	      0.32734711	     -0.93583168	     -0.22389530	      0.60791633	     -1.24465613	     -0.23788876	      0.53779857	     -2.27538115	     -0.23788876	      0.37412502	     -2.27538115	     -0.19590839	      0.30397453	     -1.90834796	     -0.18191493	      0.18704614	     -1.44960327	     -0.16792147	      2.33820770	    -10.58631513	     -1.24523849	      0.00000000	      0.00000000	     28.27737215	      4.78540341	     -9.57074749	      6.43422925	     -7.90082219	     26.36119279	     52.37493819	     87.82479657	    -10.78690614	      2.86819243	     17.82343222	    -11.07331974	    106.91515951	     17.26612870	     13.38573657	     -5.09756656	    -18.53114215
